<?xml version="1.0" encoding="utf-8"?>
<!-- Designed by Vexels.com - 2020 All Rights Reserved - https://vexels.com/terms-and-conditions/  -->
<svg version="1.1" id="Layer_1" xmlns="http://www.w3.org/2000/svg" xmlns:xlink="http://www.w3.org/1999/xlink" x="0px" y="0px"
	 viewBox="0 0 1200 1200" enable-background="new 0 0 1200 1200" xml:space="preserve">
<path fill="#EFEFEF" d="M917.418,233.647c-10.579,0.025-21.163-0.135-31.741-0.28c-5.65-0.077-11.309,0.086-16.96,0.147
	c-3.265,0.035-14.354,1.859-16.326-0.183c-1.205-1.248-0.97-4.201-2.398-5.746c-1.528-1.655-4.278-2.992-6.51-3.107
	c-3.519-0.181-8.352,0.535-11.866,0.976c2.962-4.559,6.56-10.524-1.286-11.83c-4.61-0.767-9.521-0.198-14.158-0.142
	c-12.983,0.158-25.952,1.05-38.908,1.851c-2.824,0.174-5.637,0.385-8.45,0.689c-4.078,0.441-6.293,1.328-9.631-0.846
	c-5.546-3.612-10.52-8.007-16.41-11.178c-11.663-6.281-21.129,5.367-25.059,15.369c-1.29-19.112-17.814-21.837-33.699-24.082
	c-13.511-1.909-27.189-4.007-40.877-3.045c-6.527,0.459-13.718,1.438-19.048,5.539c-4.845,3.727-8.69,9.87-11.997,14.946
	c-1.683,2.582-2.94,6.107-4.997,8.368c-2.294,2.521-1.094,2.131-4.909,2.167c-1.58,0.015-3.15-0.006-4.729-0.017
	c-6.053-0.045-12.131-0.184-18.164,0.41c0.296-3.475,2.629-3.533,4.228-6.364c1.349-2.388,0.957-5.814,0.524-8.437
	c-1.077-6.515-4.048-11.96-3.16-18.75c1.685-12.876,0.024-25.791-0.535-38.736c-1.029-23.838-10.788-47.013-32.48-58.748
	c-5.932-3.209-12.301-5.288-18.73-7.533c-2.988-1.044-6.04-1.852-9.08-2.729c-3.241-0.935-10.098-1.855-12.227-4.625
	c-1.111-1.445-1.459-5.592-1.952-7.347c-0.764-2.72-1.719-5.372-2.887-7.95c-3.135-6.917-7.982-11.536-15.762-12.266
	c-14.174-1.331-23.641,5.351-34.792,13.006c-10.299,7.069-18.051,15.237-25.167,25.742c-7.015,10.356-12.238,21.684-20.031,31.528
	c-1.939,2.45-7.462,13.629-0.646,11.538c1.604-0.492,3.497-2.936,4.45-4.552c-1.141,7.651-3.706,13.55-8.965,19.461
	c-1.45,1.63-5.707,4.572-4.802,7.406c1.547,4.846,8.257-0.269,10.364-1.776c-0.797,3.053-2.044,5.35-3.565,8.076
	c-1.205,2.159-2.939,4.177-4.056,6.287c-1.161,2.191-0.619,3.353-1.462,5.291c-1.012,2.327-6.778,5.777-9.105,7.542
	c-5.976,4.532-12.041,8.669-17.593,13.762c-8.134,7.461-16.566,15.484-21.36,25.635c-1.623,3.437-1.83,3.542-5.751,4.344
	c-1.559,0.319-3.142,0.534-4.717,0.761c-7.742,1.117-15.742,1.562-23.31,3.666c-4.59,1.276-3.846,3.015-6.282,6.234
	c-2.565,3.39-12.419,3.503-16.691,4.978c-6.566,2.267-9.52,5.266-11.657,11.781c-1.89,5.762-3.753,11.542-5.584,17.325
	c-3.847,12.149-5.116,24.686-4.67,37.376c0.224,6.374,0.316,12.388,3.404,18.025c3.144,5.74,6.614,10.939,7.219,17.63
	c1.386,15.332-1.524,30.74-8.179,44.513c-5.577,11.543-11.329,22.958-16.305,34.784c0.082-0.184,0.164-0.368,0.246-0.552
	c-8.989,20.9-0.282,48.727,16.799,62.873c7.535,6.24,16.684,7.451,26.197,7.664c4.535,0.101,9.089-0.071,13.615,0.336
	c1.104,0.099,6.25,0.133,7.048,1.358c0.337,0.518-0.574,4.585-0.675,5.433c-1.128,9.439-1.55,18.724-1.445,28.227
	c0.145,13.017,3.26,25.46,4.702,38.332c0.506,4.515,0.802,9.138,1.848,13.565c1.413,5.983,5.508,11.812,4.263,18.127
	c-1.017,5.157-4.518,9.477-6.19,14.41c-2.478,7.312-1.085,15.255-1.15,22.82c-0.053,6.148,0.134,12.652-0.564,18.742
	c-0.59,5.147-3.597,8.289-5.41,12.97c-3.948,10.195-2.189,20.598-1.537,31.219c0.799,13.03,1.209,26.097,1.413,39.165
	c0.209,13.373-0.715,26.888,0.354,40.226c0.848,10.581,3.456,19.93,11.371,27.319c2.668,2.49,3.074,1.95,3.062,5.196
	c-0.01,2.616-1.418,5.799-2.183,8.271c-2.175,7.03-4.959,13.507-8.413,20.003c-2.213,4.164-2.993,7.787-3.691,12.45
	c-0.298,1.991-0.336,4.295-1.401,6.086c-1.523,2.562-4.178,3.996-5.52,6.861c-4.679,9.993-0.867,19.75-2.541,29.932
	c-2.143,13.031-6.065,25.683-10.425,38.054c-3.68,10.441,0.028,20.908-2.299,31.316c-1.16,5.189-3.299,10.155-4.517,15.351
	c-1.656,7.065,0.29,13.201-0.352,20.145c-0.488,5.271-3.031,10.143-3.111,15.502c-0.097,6.521,2.702,12.808,3.978,19.109
	c2.237,11.044,2.68,21.121,0.336,32.285c-1.253,5.966-1.746,12.127-3.204,18.039c-1.305,5.29-3.312,10.362-4.559,15.677
	c-1.529,6.514-1.96,13.031-2.67,19.669c-0.746,6.971-2.352,14.35-0.31,21.227c3.872,13.042,20.533,12.36,31.702,11.842
	c15.156-0.704,22.67-10.786,27.94-23.916c1.788-4.455,4.848-7.441,7.392-11.473c3.678-5.829,6.663-12.428,8.239-19.128
	c2.74-11.645,3.608-24.515-2.888-35.065c-2.909-4.724-5.685-5.649-4.519-11.506c1.177-5.91,3.51-11.279,7.117-15.976
	c6.011-7.827,7.915-19.771,8.981-29.441c1.28-11.618,1.335-22.828,4.271-34.266c1.17-4.559,3.559-8.631,4.799-13.169
	c1.396-5.112,1.831-10.485,2.642-15.716c1.864-12.017,1.966-23.752,7.609-34.81c4.304-8.433,10.069-15.812,13.944-24.583
	c4.615-10.443,8.046-21.518,10.863-32.574c1.183-4.643,2.181-9.291,2.752-14.06c0.256-2.139,0.51-4.282,0.49-6.441
	c-0.034-3.534-1.738-7.179-1.48-10.641c0.418-5.608,6.074-9.814,9.184-14.073c3.568-4.887,5.975-10.933,8.232-16.53
	c4.216-10.455,6.016-21.64,9.946-32.205c2.062-5.544,4.706-10.896,7.511-16.107c1.715-3.186,3.994-8.949,7.187-10.824
	c2.777-1.631,9.72,0.683,12.401,1.393c5.437,1.437,9.619,3.642,14.345,6.277c10.246,5.714,19.223,14.635,27.752,22.628
	c8.681,8.135,16.803,18.087,23.06,28.137c-0.1-0.172-0.201-0.345-0.301-0.517c7.589,12.646,19.339,21.51,30.977,30.225
	c2.376,1.779,5.466,3.174,7.373,5.471c1.5,1.808,2.038,4.253,3.387,6.192c3.815,5.483,9.997,6.559,14.942,10.393
	c2.984,2.314,3.897,6.433,5.766,9.701c1.2,2.098,2.457,4.206,4.055,6.031c1.374,1.569,3.978,2.829,5.106,4.482
	c2.185,3.204-0.467,9.022-0.199,13.234c0.435,6.832,4.248,13.232,6.572,19.595c1.881,5.148,3.899,10.265,5.292,15.574
	c1.743,6.644,2.079,13.538,3.685,20.208c3.394,14.097,10.012,25.617,17.701,37.777c3.148,4.978,3.955,9.338,4.188,15.097
	c0.301,7.438,2.403,14.806,6.542,21.052c7.354,11.094,13.732,22.53,18.995,34.828c5.694,13.303,10.945,26.263,14.153,40.447
	c3.134,13.858,6.66,27.386,10.695,41.004c1.645,5.554,2.721,11.148,7.675,14.88c5.206,3.922,13.199,4.833,19.501,3.939
	c15.671-2.223,23.67-12.988,26.515-27.995c1.351-7.122,1.769-14.436,2.896-21.602c1.03-6.547,2.779-13.3,2.962-19.937
	c0.314-11.386-4.549-21.97-10.097-31.72c-2.518-4.425-5.818-8.487-10.364-10.955c-3.83-2.079-6.011-1.605-5.673-6.737
	c0.175-2.645,1.295-5.198,1.442-7.891c0.372-6.829-3.623-11.936-4.872-18.385c-1.148-5.929-2.283-11.596-4.585-17.216
	c-2.5-6.103-6.437-11.647-8.638-17.857c-2.293-6.469-2.617-13.653-2.865-20.453c-0.424-11.632-4.46-22.627-5.377-34.207
	c-1.036-13.085-0.258-26.204-2.798-39.176c-2.233-11.407-6.094-22.356-10.019-33.261c-4.633-12.87-13.477-22.734-22.728-32.527
	c-10.242-10.843-16.294-21.464-19.65-36.039c-3.224-13.999-9.992-28.954-17.5-41.231c-6.685-10.931-11.462-22.216-15.702-34.28
	c-1.827-5.196-3.527-10.042-7.449-14.146c-3.797-3.972-8.045-7.4-12.176-11.004c-9.626-8.398-16.915-20.08-20.406-32.355
	c-3.158-11.106-4.329-24.017-12.665-32.684c-3.426-3.561-7.75-3.467-11.56-6.105c-4.493-3.111-6.03-9.754-7.909-14.581
	c-1.027-2.639-2.321-5.898-1.914-8.82c0.431-3.091,3.062-5.1,4.63-7.971c3.017-5.522,2.125-12.008,3.681-17.949
	c1.695-6.474,4.9-12.67,6.863-19.116c1.799-5.909,4.164-9.655,8.191-14.324c7.301-8.465,13.168-18.548,17.88-28.684
	c6.226-13.392,3.652-30.789-9.965-38.999c-5.949-3.587-16.51-4.381-15.758-13.953c0.327-4.167,6.646-9.588,9.773-12.189
	c1.882-1.566,5.846-5.148,8.424-5.327c2.221-0.154,7.745,3.18,9.774,4.242c11.417,5.971,22.626,13.762,35.154,17.175
	c10.588,2.884,22.954,1.521,33.518-0.883c15.12-3.441,26.276-14.965,39.565-22.304c11.653-6.435,21.516-13.474,30.01-23.784
	c4.605-5.59,8.332-11.449,10.371-18.456c1.641-5.638,1.253-11.625,3.984-16.931c4.733-9.197,15.796-16.027,23.159-23.127
	c5.679-5.476,9.408-8.854,7.343-16.983c-1.245-4.902-3.612-10.319-7.055-14.097c8.622-2.415,14.299-9.473,21.96-13.516
	c8.516-4.494,17.972-5.057,27.244-6.69c4.762-0.838,9.919-2.504,14.45-4.249c1.404-0.541,2.815-1.101,3.856-2.214
	c0.724-0.774,1.039-2.559,1.757-3.061c1.937-1.356,8.102-0.794,10.626-1.111c4.487-0.562,15.057-0.462,18.449-3.896
	c1.765-1.787,2.009-7.512,1.316-9.765c18.434-1.449,37.44-0.077,55.962-0.143c7.791-0.028,15.571,0.051,23.36,0.228
	c5.833,0.132,12.911-1.49,11.059-9.319C943.671,230.994,921.747,233.636,917.418,233.647z M388.47,889.892
	c-0.31-0.178-0.139-0.469,0.513-0.873C388.812,889.31,388.641,889.601,388.47,889.892z M659.691,317.925
	c-0.989,2.656-3.919,4.846-5.946,6.697c-3.746,3.42-7.447,6.715-10.783,10.543c-1.146,1.315-2.182,3.003-3.498,4.119
	c-2.508,2.125-1.054,2.242-4.232,0.777c-3.207-1.478-5.59-4.538-8.14-6.869c-1.306-1.193-9.209-6.546-9.212-8.415
	c-0.002-0.824,2.367-5.311,2.774-5.847c0.575-0.758,3.064-1.768,3.812-2.534c1.869-1.917,1.96-4.209,3.201-6.321
	c1.211-2.059,1.212-1.945,3.563-3.297c2.276-1.309,4.162-3.101,5.301-5.496c2.1-4.411-0.948-5.927,4.557-5.972
	c3.53-0.029,6.679-0.003,10.303-0.159c1.825-0.079,6.803-1.19,8.333-0.009c1.475,1.138,0.224,9.32,0.262,11.235
	C660.051,309.719,660.919,314.623,659.691,317.925z M665.895,220.445c-8.367,0.055-16.669-0.322-25.024-0.561
	c-3.423-0.098-5.986,0.29-9.165-0.977c-4.131-1.647-2.592-3.697-0.35-6.97c5.98-8.729,16.363-7.325,25.721-7.679
	c6.976-0.264,13.889-0.091,20.871,0.043c6.453,0.124,12.722-0.074,18.992,1.784c3.129,0.927,6.742,2.175,9.208,4.388
	c2.27,2.036,4.769,10.082,0.317,10.313C693.052,221.589,679.347,220.356,665.895,220.445z M729.745,268.369
	c-5.66,8.57-13.875,14.929-22.212,20.751c-0.074-8.392,0.903-18.875,5.125-26.238c2.139-3.73,3.474-6.647,6.829-3.686
	c3.892,3.434,5.245,6.841,11.169,7.511C730.352,267.262,730.049,267.815,729.745,268.369z"/>
</svg>
