<?xml version="1.0" encoding="UTF-8"?>
<svg width="21px" height="19px" viewBox="0 0 21 19" version="1.1" xmlns="http://www.w3.org/2000/svg" xmlns:xlink="http://www.w3.org/1999/xlink" >
    <!-- Generator: Sketch 51.1 (57501) - http://www.bohemiancoding.com/sketch -->
    <title>Group 7</title>
    <desc>Created with Sketch.</desc>
    <defs>
        <polygon id="path-1" points="0.09102 0.0501202703 8.92152 0.0501202703 8.92152 9 0.09102 9"></polygon>
        <polygon id="path-3" points="0 0.0814819444 16.9923797 0.0814819444 16.9923797 16.9927676 0 16.9927676"></polygon>
    </defs>
    <g id="Chat---v1" stroke="none" stroke-width="1" fill="none" fill-rule="evenodd">
        <g id="01-chat-inicial" transform="translate(-1868.000000, -89.000000)">
            <g id="Group-7" transform="translate(1868.000000, 89.000000)">
                <g id="Group-3" transform="translate(12.000000, 9.300000)">
                    <mask id="mask-2" fill="white">
                        <use xlink:href="#path-1"></use>
                    </mask>
                    <g id="Clip-2"></g>
                    <path d="M8.60622,3.55549865 L5.46294,3.55549865 L5.46294,0.369741892 C5.46294,0.193268919 5.3217,0.0501202703 5.14758,0.0501202703 L3.86502,0.0501202703 C3.6909,0.0501202703 3.54966,0.193268919 3.54966,0.369741892 L3.54966,3.55549865 L0.40638,3.55549865 C0.23226,3.55549865 0.09102,3.6986473 0.09102,3.87512027 L0.09102,5.17501216 C0.09102,5.35160676 0.23226,5.49463378 0.40638,5.49463378 L3.54966,5.49463378 L3.54966,8.68039054 C3.54966,8.85686351 3.6909,9.00001216 3.86502,9.00001216 L5.14758,9.00001216 C5.3217,9.00001216 5.46294,8.85686351 5.46294,8.68039054 L5.46294,5.49463378 L8.60622,5.49463378 C8.78034,5.49463378 8.92158,5.35160676 8.92158,5.17501216 L8.92158,3.87512027 C8.92158,3.6986473 8.78034,3.55549865 8.60622,3.55549865" id="Fill-1" fill="#FFFFFF" mask="url(#mask-2)"></path>
                </g>
                <g id="Group-6">
                    <mask id="mask-4" fill="white">
                        <use xlink:href="#path-3"></use>
                    </mask>
                    <g id="Clip-5"></g>
                    <path d="M9.75263846,0.0814819444 L7.27575035,0.0814819444 C3.25744965,0.0814819444 -1.18881119e-05,3.31632222 -1.18881119e-05,7.30671806 L-1.18881119e-05,7.46042639 C-0.00619370629,9.67691944 1.01237972,11.7735861 2.76337972,13.1483431 L2.32209301,16.1151972 C2.2704986,16.4142319 2.40091119,16.7152736 2.65484126,16.8838569 C2.78786923,16.9628361 2.94146364,17.0002597 3.09612797,16.9915236 C3.23165245,16.9924681 3.36527483,16.9579958 3.48308601,16.8915306 L7.35326084,14.6855444 L9.62484126,14.6855444 L9.62484126,13.1483431 L7.1829042,13.1483431 C7.04416993,13.1417319 6.90686224,13.1765583 6.78821888,13.2482181 L4.08676434,14.7855375 L4.35769441,12.8946417 C4.41083427,12.5972597 4.28375035,12.2965722 4.03267343,12.1259819 C2.48496014,11.0686764 1.55697413,9.32582222 1.54817692,7.46042639 L1.54817692,7.30671806 C1.55233776,4.16703056 4.11422587,1.62305139 7.27575035,1.61868333 L9.75263846,1.61868333 C12.6693867,1.62269722 15.0738762,3.78878056 15.4324217,6.5894125 L16.9923797,6.5894125 C16.6297923,2.93582917 13.527114,0.0814819444 9.75263846,0.0814819444" id="Fill-4" fill="#FFFFFF" mask="url(#mask-4)"></path>
                </g>
            </g>
        </g>
    </g>
</svg>