<svg xmlns="http://www.w3.org/2000/svg" width="32" height="20" viewBox="0 0 32 20" fill="none">
<path d="M13.0756 6.94191L9.98889 0.6875L6.90216 6.94191L0 7.94485L4.99445 12.8132L3.81542 19.6875L9.98889 16.4419L16.1624 19.6875L14.9833 12.8132L19.9778 7.94485L13.0756 6.94191Z" fill="white"/>
<path d="M17.8777 18.2252L21.2697 16.4419L27.4432 19.6875L26.2641 12.8132L31.2586 7.94485L24.3564 6.94191L21.2697 0.6875L18.743 5.80721L24.1422 6.59176L17.0655 13.4898L17.8777 18.2252Z" fill="white"/>
<path d="M15.6293 19.4072L15.1844 19.1734L15.6293 16.5794L16.0742 19.1734L15.6293 19.4072Z" fill="white"/>
<path d="M15.6293 12.1836L19.9778 7.94485L15.6293 7.31298L11.2808 7.94485L15.6293 12.1836Z" fill="white"/>
</svg>